# xmcd
#
# Track frame offsets:
#       150
#       17582
#       34417
#       49273
#       64433
#       78862
#       98950
#       124408
#       146571
#       162309
#
# Disc length: 2499 seconds
#
# Revision: 0
# Processed by: cddbd v1.4b42PL1 Copyright (c) Steve Scherf et al.
# Submitted via: CD-DA_X-Tractor v0.21
#
DISCID=8c09c10a
DTITLE=Asylum Street Spankers - Live in Europe 2001
DYEAR=1900
DGENRE=
TTITLE0=Digga Doo/Cantina Theme
TTITLE1=Blade of Grass
TTITLE2=Walk Around
TTITLE3=Winning the War on Drugs
TTITLE4=Asylum Street Blues
TTITLE5=Tight Like That
TTITLE6=It's s Sin to Tell a Lie
TTITLE7=Topsy
TTITLE8=Got My Mojo Workin'
TTITLE9=Mah Na Mah Na
EXTD=
EXTT0=
EXTT1=
EXTT2=
EXTT3=
EXTT4=
EXTT5=
EXTT6=
EXTT7=
EXTT8=
EXTT9=
PLAYORDER=
